# xmcd
#
# Track frame offsets:
#	150
#	19497
#	36585
#	65212
#	81402
#	95002
#	108752
#	122897
#	135822
#	159117
#	172875
#	184577
#	217415
#	229272
#
# Disc length: 3381
#
# Revision: 3
# Processed by: cddbd v1.5.1PL0 Copyright (c) Steve Scherf et al.
# Submitted via: CDex 1.30Release
# Normalized: r2:TDELIM( - )
#
DISCID=c50d330e
DTITLE=Various Artist - Home of the Blues
DYEAR=1999
DGENRE=Blues
TTITLE0=Jonny Lang - Good morning
TTITLE1=Allman Brothers - Trouble no more
TTITLE2=Luther Allison - Luther's Blues
TTITLE3=John Mayall - All your love
TTITLE4=Buddy Guy - My time after awhile
TTITLE5=Slim Harpo - I'm a king bee
TTITLE6=Howlin Wolf - Smokestack lightnin
TTITLE7=Muddy Waters - Hoochie Coochie Man
TTITLE8=John Lee Hooker - It serves you right to suffer
TTITLE9=Koko Taylor - Wang Dang Doodle
TTITLE10=Etta James - I'd rather go blind
TTITLE11=Robert Cray - I was warned
TTITLE12=Bobby Bland - Turn on your love light
TTITLE13=BB King - The thrill is gone
EXTD=YEAR: 1999 ID3G:   0
EXTT0=
EXTT1=
EXTT2=
EXTT3=
EXTT4=
EXTT5=
EXTT6=
EXTT7=
EXTT8=
EXTT9=
EXTT10=
EXTT11=
EXTT12=
EXTT13=
PLAYORDER=
